# AST/ASF file generated using VICON BodyLanguage
# -----------------------------------------------
:version 1.10
:name VICON
:units
  mass 1.0
  length 0.45
  angle deg
:documentation
   .ast/.asf automatically generated from VICON data using
   VICON BodyBuilder and BodyLanguage model FoxedUp or BRILLIANT.MOD
:root
   order TX TY TZ RX RY RZ
   axis XYZ
   position 0 0 0  
   orientation 0 0 0 
:bonedata
  begin
     id 1 
     name lhipjoint
     direction 0.521689 -0.742065 0.420928 
     length 2.47002 
     axis 0 0 0  XYZ
  end
  begin
     id 2 
     name lfemur
     direction 0.34202 -0.939693 0  
     length 7.24654  
     axis 0 0 20  XYZ
    dof rx ry rz
    limits (-160.0 20.0)
           (-70.0 70.0)
           (-60.0 70.0)
  end
  begin
     id 3 
     name ltibia
     direction 0.34202 -0.939693 0   
     length 8.04849   
     axis 0 0 20   XYZ
    dof rx
    limits (-10.0 170.0)
  end
  begin
     id 4 
     name lfoot
     direction 0.0745411 -0.2048 0.975961   
     length 1.72367   
     axis -90 7.62852e-016 20   XYZ
    dof rx rz
    limits (-45.0 90.0)
           (-70.0 20.0)
  end
  begin
     id 5 
     name ltoes
     direction 1.53556e-011 -4.21901e-011 1   
     length 0.87311   
     axis -90 7.62852e-016 20   XYZ
    dof rx
    limits (-90.0 20.0)
  end
  begin
     id 6 
     name rhipjoint
     direction -0.52849 -0.738415 0.418857   
     length 2.48223  
     axis 0 0 0  XYZ 
  end
  begin
     id 7 
     name rfemur
     direction -0.34202 -0.939693 0   
     length 7.15571   
     axis 0 0 -20   XYZ
    dof rx ry rz
    limits (-160.0 20.0)
           (-70.0 70.0)
           (-70.0 60.0)
  end
  begin
     id 8 
     name rtibia
     direction -0.34202 -0.939693 0   
     length 7.81659   
     axis 0 0 -20   XYZ
    dof rx
    limits (-10.0 170.0)
 end
 begin
     id 9 
     name rfoot
     direction -0.0917348 -0.252039 0.963359   
     length 1.84382  
     axis -90 -7.62852e-016 -20   XYZ
    dof rx rz
    limits (-45.0 90.0)
           (-20.0 70.0)
  end
  begin
     id 10 
     name rtoes
     direction -1.53551e-011 -4.21879e-011 1   
     length 0.927771   
     axis -90 -7.62852e-016 -20   XYZ
    dof rx
    limits (-90.0 20.0)
  end
  begin
     id 11 
     name lowerback
     direction 0.00583058 0.999822 0.0179296   
     length 2.1429   
     axis 0 0 0   XYZ
    dof rx ry rz
    limits (-20.0 45.0)
           (-30.0 30.0)
           (-30.0 30.0)
  end
  begin
     id 12 
     name upperback
     direction -0.0137999 0.999752 -0.0175071   
     length 2.14252   
     axis 0 0 0   XYZ
    dof rx ry rz
    limits (-20.0 45.0)
           (-30.0 30.0)
           (-30.0 30.0)
  end
  begin
     id 13 
     name thorax
     direction -0.0158036 0.99955 -0.0254909   
     length 2.1383   
     axis 0 0 0   XYZ
    dof rx ry rz
    limits (-20.0 45.0)
           (-30.0 30.0)
           (-30.0 30.0)
  end
  begin
     id 14 
     name lowerneck
     direction -0.0101179 0.999403 -0.0330262   
     length 1.65808   
     axis 0 0 0   XYZ
    dof rx ry rz
    limits (-20.0 45.0)
           (-30.0 30.0)
           (-30.0 30.0)
  end
  begin
     id 15 
     name upperneck
     direction 0.0497734 0.995978 -0.074501   
     length 1.5897   
     axis 0 0 0   XYZ
    dof rx ry rz
    limits (-20.0 45.0)
           (-30.0 30.0)
           (-30.0 30.0)
  end
  begin
     id 16
     name head
     direction 0.0189524 0.999519 -0.0245438  
     length 1.74024  
     axis 0 0 0   XYZ
    dof rx ry rz
    limits (-20.0 45.0)
           (-30.0 30.0)
           (-30.0 30.0)
  end
  begin
     id 17 
     name lclavicle
     direction 0.945604 0.324422 0.0241537  
     length 3.59089  
     axis 0 0 0   XYZ
    dof ry rz
    limits (-20.0 10.0)
           (0.0 20.0)
  end
  begin
     id 18 
     name lhumerus
     direction 1 -4.48964e-011 -2.63524e-027   
     length 5.2391   
     axis 180 -30 -90   XYZ
    dof rx ry rz
    limits (-60.0 90.0)
           (-90.0 90.0)
           (-90.0 90.0)
  end
  begin
     id 19
     name lradius
     direction 1 -4.48969e-011 3.86978e-028   
     length 3.31467   
     axis 180 -30 -90   XYZ
    dof rx
    limits (-10.0 170.0)
  end
  begin
     id 20
     name lwrist
     direction 1 -4.48963e-011 7.20928e-028   
     length 1.65734   
     axis -5.52449e-016 90 90   XYZ
    dof ry
    limits (-180.0 0.0)
 end
  begin
     id 21 
     name lhand
     direction 1 -4.48964e-011 1.44186e-027   
     length 0.9659   
     axis -9.20027e-016 90 90   XYZ
    dof rx rz
    limits (-90.0 90.0)
           (-45.0 45.0)
  end
  begin
     id 22 
     name lfingers
     direction 1 -4.48965e-011 2.88371e-027   
     length 0.778733   
     axis -1.84005e-015 90 90   XYZ
    dof rx
    limits (0.0 90.0)
  end
  begin
     id 23
     name lthumb
     direction 0.707107 -6.34931e-011 0.707107   
     length 1.11811   
     axis -90 45 2.85299e-015   XYZ
    dof rx rz
    limits (-45.0 45.0)
           (-45.0 45.0)
  end
  begin
     id 24 
     name rclavicle
     direction -0.923762 0.370785 0.0958234   
     length 3.54196  
     axis 0 0 0   XYZ 
    dof ry rz
    limits (-10.0 20.0)
           (-20.0 0.0)
  end
  begin
     id 25 
     name rhumerus
     direction -1 -4.48966e-011 1.18702e-017  
     length 5.30252   
     axis 180 30 90   XYZ
    dof rx ry rz
    limits (-90.0 60.0)
           (-90.0 90.0)
           (-90.0 90.0)
  end
  begin
     id 26 
     name rradius
     direction -1 -4.48966e-011 4.46736e-027   
     length 3.67875   
     axis 180 30 90   XYZ
    dof rx
    limits (-10.0 170.0)
  end
  begin
     id 27 
     name rwrist
     direction -1 -4.48966e-011 7.20928e-028   
     length 1.83937   
     axis -5.52449e-016 -90 -90   XYZ
    dof ry
    limits (-180.0 0.0)
  end
  begin
     id 28
     name rhand
     direction -1 -4.48973e-011 1.44186e-027   
     length 0.594811   
     axis -9.20027e-016 -90 -90   XYZ
    dof rx rz
    limits (-90.0 90.0)
           (-45.0 45.0)
  end
  begin
     id 29
     name rfingers
     direction -1 -4.48963e-011 2.88371e-027   
     length 0.479552   
     axis -1.84005e-015 -90 -90   XYZ
    dof rx
    limits (0.0 90.0)
  end
  begin
     id 30
     name rthumb
     direction -0.707107 -6.34932e-011 0.707107   
     length 0.688544   
     axis -90 -45 -2.85299e-015   XYZ
    dof rx rz
    limits (-45.0 45.0)
           (-45.0 45.0)
  end
:hierarchy
  begin
    root lhipjoint rhipjoint lowerback
    lhipjoint lfemur
    lfemur ltibia
    ltibia lfoot
    lfoot ltoes
    rhipjoint rfemur
    rfemur rtibia
    rtibia rfoot
    rfoot rtoes
    lowerback upperback
    upperback thorax
    thorax lowerneck lclavicle rclavicle
    lowerneck upperneck
    upperneck head
    lclavicle lhumerus
    lhumerus lradius
    lradius lwrist
    lwrist lhand lthumb
    lhand lfingers
    rclavicle rhumerus
    rhumerus rradius
    rradius rwrist
    rwrist rhand rthumb
    rhand rfingers
  end

#!OML:ASF E:\acrobat2\Project_11_07_03\Capture day 1\Session 1\Acrobat.ASF
:FULLY-SPECIFIED
:DEGREES
119
root 10.4686 28.0357 -33.8314 9.61201 1.34555 -1.92076
lowerback 3.07717 -0.918351 2.39246
upperback 1.73805 -1.15741 1.16515
thorax 0.0343324 -0.567204 -0.112162
lowerneck 0.593571 -9.74937 -7.08547
upperneck 5.44904 -13.3378 7.3786
head 2.75856 -6.65273 3.26409
rclavicle 6.36111e-015 1.63997e-014
rhumerus -36.5785 0.541705 -82.7083
rradius 31.2017
rwrist 7.85532
rhand 2.178 -18.975
rfingers 7.12502
rthumb 27.6748 -46.959
lclavicle 6.36111e-015 1.63997e-014
lhumerus -29.6927 -9.72704 83.0414
lradius 34.6672
lwrist 6.86647
lhand -12.1333 -13.6487
lfingers 7.12502
lthumb 13.9285 15.8648
rfemur -4.59459 4.57132 24.8315
rtibia 1.77557
rfoot -20.13 -17.9486
rtoes -6.27183
lfemur -23.1981 -0.686197 -13.949
ltibia 27.1903
lfoot -4.49538 -7.65458
ltoes 22.9106
120
root 10.4781 28.0354 -33.832 9.62633 1.29876 -1.91491
lowerback 3.01866 -0.854088 2.45514
upperback 1.78851 -1.07358 1.15132
thorax 0.119084 -0.523749 -0.165378
lowerneck 0.509723 -9.79095 -7.06522
upperneck 5.34833 -13.383 7.36404
head 2.7402 -6.67391 3.25062
rclavicle -9.93923e-016 -5.1684e-015
rhumerus -36.6088 0.599201 -82.6672
rradius 31.2756
rwrist 7.69048
rhand 2.08189 -19.107
rfingers 7.12502
rthumb 27.5829 -47.1057
lclavicle -9.93923e-016 -5.1684e-015
lhumerus -29.5918 -9.85323 83.177
lradius 34.6394
lwrist 6.67009
lhand -11.5366 -13.542
lfingers 7.12502
lthumb 14.5035 15.9311
rfemur -4.49314 4.68393 24.7015
rtibia 1.77174
rfoot -20.4014 -18.0146
rtoes -6.60088
lfemur -23.3136 -0.389621 -14.1315
ltibia 27.2937
lfoot -4.41635 -7.90907
ltoes 22.7111
121
root 10.4879 28.0342 -33.8318 9.63053 1.16916 -1.87624
lowerback 2.96638 -0.767787 2.46286
upperback 1.83514 -0.961564 1.11994
thorax 0.197823 -0.466576 -0.20627
lowerneck 0.453499 -9.82554 -7.06366
upperneck 5.23969 -13.4214 7.37412
head 2.71738 -6.6923 3.25077
rclavicle -5.1684e-015 1.19271e-014
rhumerus -36.6573 0.694317 -82.6362
rradius 31.3596
rwrist 7.51689
rhand 2.00111 -19.2042
rfingers 7.12502
rthumb 27.5057 -47.2152
lclavicle -5.1684e-015 1.19271e-014
lhumerus -29.5629 -10.0226 83.3197
lradius 34.6847
lwrist 6.5261
lhand -11.0388 -13.481
lfingers 7.12502
lthumb 14.9831 15.957
rfemur -4.45329 4.76261 24.5032
rtibia 1.92556
rfoot -20.7264 -17.9957
rtoes -7.11162
lfemur -23.2814 -0.135757 -14.3542
ltibia 27.1288
lfoot -4.30127 -8.18338
ltoes 22.8377
122
root 10.4974 28.0318 -33.8311 9.62083 0.990015 -1.79875
lowerback 2.93607 -0.682091 2.39573
upperback 1.86723 -0.850996 1.08344
thorax 0.250412 -0.411035 -0.209838
lowerneck 0.42708 -9.84713 -7.08686
upperneck 5.15042 -13.4447 7.38478
head 2.69667 -6.7042 3.25748
rclavicle -6.95746e-015 1.23246e-014
rhumerus -36.7221 0.853078 -82.6106
rradius 31.4363
rwrist 7.34983
rhand 1.94953 -19.2836
rfingers 7.12502
rthumb 27.4563 -47.3025
lclavicle -6.95746e-015 1.23246e-014
lhumerus -29.625 -10.1832 83.4674
lradius 34.8015
lwrist 6.42747
lhand -10.617 -13.3992
lfingers 7.12502
lthumb 15.3894 16.0081
rfemur -4.45849 4.80259 24.2383
rtibia 2.21056
rfoot -21.0836 -17.9402
rtoes -7.87873
lfemur -23.1093 0.0441517 -14.6145
ltibia 26.7068
lfoot -4.10856 -8.45161
ltoes 23.4308
123
root 10.5061 28.0281 -33.8296 9.59609 0.781748 -1.68415
lowerback 2.92495 -0.60913 2.24699
upperback 1.88153 -0.758144 1.04803
thorax 0.27451 -0.365434 -0.165655
lowerneck 0.427315 -9.85031 -7.11751
upperneck 5.10242 -13.4451 7.36772
head 2.68137 -6.70558 3.258
rclavicle -7.05686e-015 -3.97569e-016
rhumerus -36.799 1.0819 -82.5918
rradius 31.4911
rwrist 7.20537
rhand 1.93852 -19.369
rfingers 7.12502
rthumb 27.4458 -47.3895
lclavicle -7.05686e-015 -3.97569e-016
lhumerus -29.7696 -10.3042 83.6144
lradius 34.9689
lwrist 6.3726
lhand -10.2051 -13.318
lfingers 7.12502
lthumb 15.7861 16.0583
rfemur -4.49269 4.81875 23.913
rtibia 2.60295
rfoot -21.4659 -17.8708
rtoes -8.80201
lfemur -22.8106 0.13563 -14.9055
ltibia 26.0642
lfoot -3.82189 -8.63499
ltoes 24.4452
124
root 10.5145 28.0229 -33.8267 9.56029 0.551559 -1.54245
lowerback 2.91933 -0.550959 2.03426
upperback 1.87544 -0.685799 1.01279
thorax 0.27461 -0.330955 -0.0846781
lowerneck 0.456197 -9.82733 -7.14249
upperneck 5.11041 -13.4127 7.3147
head 2.67347 -6.69139 3.24759
rclavicle -4.96962e-017 -1.21259e-014
rhumerus -36.8906 1.36509 -82.5812
rradius 31.5194
rwrist 7.10528
rhand 1.98918 -19.4966
rfingers 7.12502
rthumb 27.4942 -47.5095
lclavicle -4.96962e-017 -1.21259e-014
lhumerus -29.9865 -10.3882 83.7558
lradius 35.1703
lwrist 6.36733
lhand -9.77754 -13.2194
lfingers 7.12502
lthumb 16.1979 16.1239
rfemur -4.54999 4.81256 23.5357
rtibia 3.08417
rfoot -21.8664 -17.7645
rtoes -9.70815
lfemur -22.4061 0.144239 -15.2192
ltibia 25.303
lfoot -3.51675 -8.6939
ltoes 25.4861
125
root 10.5233 28.0162 -33.8223 9.52177 0.305924 -1.39371
lowerback 2.90304 -0.502016 1.79714
upperback 1.85506 -0.626307 0.972338
thorax 0.265617 -0.303183 0.00499231
lowerneck 0.49748 -9.78172 -7.14261
upperneck 5.16763 -13.3518 7.2357
head 2.67327 -6.66297 3.2253
rclavicle 6.55989e-015 1.11319e-014
rhumerus -36.9913 1.65911 -82.5781
rradius 31.5268
rwrist 7.06618
rhand 2.10927 -19.686
rfingers 7.12502
rthumb 27.6091 -47.6805
lclavicle 6.55989e-015 1.11319e-014
lhumerus -30.2462 -10.4671 83.8835
lradius 35.3865
lwrist 6.41664
lhand -9.33625 -13.1693
lfingers 7.12502
lthumb 16.6227 16.1388
rfemur -4.63973 4.7716 23.1252
rtibia 3.64004
rfoot -22.2574 -17.5954
rtoes -10.568
lfemur -21.9455 0.0941839 -15.5406
ltibia 24.5579
lfoot -3.30006 -8.6603
ltoes 26.0416
126
root 10.5331 28.008 -33.8165 9.48174 0.0466981 -1.2557
lowerback 2.86254 -0.452332 1.56813
upperback 1.83765 -0.566235 0.922659
thorax 0.272704 -0.274854 0.0804833
lowerneck 0.524049 -9.72244 -7.09994
upperneck 5.25248 -13.2728 7.14226
head 2.67882 -6.62448 3.19029
rclavicle 1.73937e-015 -2.78299e-015
rhumerus -37.0618 1.9066 -82.5727
rradius 31.5043
rwrist 7.13463
rhand 2.32296 -19.9355
rfingers 7.12502
rthumb 27.8134 -47.8971
lclavicle 1.73937e-015 -2.78299e-015
lhumerus -30.5094 -10.5654 83.9944
lradius 35.597
lwrist 6.49694
lhand -8.92807 -13.1641
lfingers 7.12502
lthumb 17.0157 16.1106
rfemur -4.76983 4.6674 22.698
rtibia 4.26885
rfoot -22.5987 -17.3293
rtoes -11.4047
lfemur -21.4761 0.0189521 -15.8608
ltibia 23.9555
lfoot -3.21115 -8.62575
ltoes 26.0484
127
root 10.544 27.9986 -33.81 9.4357 -0.213626 -1.14565
lowerback 2.80156 -0.3986 1.37863
upperback 1.83497 -0.500359 0.861628
thorax 0.305631 -0.243061 0.121955
lowerneck 0.519295 -9.65743 -6.99365
upperneck 5.34409 -13.1845 7.0347
head 2.68517 -6.57973 3.13814
rclavicle 1.3418e-015 -1.51076e-014
rhumerus -37.0888 2.06877 -82.5598
rradius 31.4619
rwrist 7.33372
rhand 2.61519 -20.2047
rfingers 7.12502
rthumb 28.0928 -48.1209
lclavicle 1.3418e-015 -1.51076e-014
lhumerus -30.7533 -10.7057 84.0887
lradius 35.7887
lwrist 6.58189
lhand -8.61856 -13.2578
lfingers 7.12502
lthumb 17.3136 15.991
rfemur -4.94312 4.45769 22.275
rtibia 4.98165
rfoot -22.8655 -16.9359
rtoes -12.2445
lfemur -21.0336 -0.0517752 -16.1708
ltibia 23.5717
lfoot -3.24223 -8.69757
ltoes 25.7238
128
root 10.5559 27.9884 -33.804 9.38684 -0.451431 -1.07969
lowerback 2.73213 -0.352257 1.24731
upperback 1.84952 -0.443162 0.797295
thorax 0.360197 -0.214998 0.127702
lowerneck 0.472638 -9.58392 -6.82759
upperneck 5.42614 -13.082 6.91384
head 2.68886 -6.52621 3.06988
rclavicle 2.85753e-015 -8.64713e-015
rhumerus -37.0628 2.15482 -82.5468
rradius 31.3993
rwrist 7.61644
rhand 2.85775 -20.3758
rfingers 7.12502
rthumb 28.3246 -48.2536
lclavicle 2.85753e-015 -8.64713e-015
lhumerus -30.9741 -10.8876 84.171
lradius 35.9644
lwrist 6.64995
lhand -8.49276 -13.4577
lfingers 7.12502
lthumb 17.4347 15.7804
rfemur -5.17627 4.13586 21.8836
rtibia 5.80669
rfoot -23.0789 -16.419
rtoes -13.0908
lfemur -20.6481 -0.10229 -16.4536
ltibia 23.4083
lfoot -3.36776 -8.91855
ltoes 25.2893
129
root 10.5678 27.9779 -33.7999 9.3399 -0.649157 -1.05578
lowerback 2.6681 -0.323935 1.16153
upperback 1.88325 -0.408878 0.738652
thorax 0.430919 -0.197952 0.1144
lowerneck 0.373752 -9.49197 -6.62037
upperneck 5.48007 -12.9509 6.78437
head 2.68653 -6.45699 2.99098
rclavicle 3.67752e-015 -5.76476e-015
rhumerus -36.9701 2.17499 -82.5327
rradius 31.3125
rwrist 7.93561
rhand 2.96185 -20.3586
rfingers 7.12502
rthumb 28.4241 -48.22
lclavicle 3.67752e-015 -5.76476e-015
lhumerus -31.1667 -11.1043 84.2503
lradius 36.1392
lwrist 6.68545
lhand -8.63215 -13.6854
lfingers 7.12502
lthumb 17.3005 15.5646
rfemur -5.48597 3.72298 21.5334
rtibia 6.76342
rfoot -23.2545 -15.8229
rtoes -13.9802
lfemur -20.3307 -0.128611 -16.7071
ltibia 23.403
lfoot -3.53465 -9.25451
ltoes 25.1008
130
root 10.5787 27.9679 -33.7991 9.29353 -0.797212 -1.06003
lowerback 2.63233 -0.317251 1.09323
upperback 1.92808 -0.402493 0.688067
thorax 0.496965 -0.194764 0.100371
lowerneck 0.23355 -9.37798 -6.37554
upperneck 5.50529 -12.787 6.64039
head 2.67575 -6.3704 2.90095
rclavicle 4.96962e-017 4.77083e-015
rhumerus -36.8237 2.1305 -82.5159
rradius 31.2115
rwrist 8.24526
rhand 2.91091 -20.1608
rfingers 7.12502
rthumb 28.3754 -48.0303
lclavicle 4.96962e-017 4.77083e-015
lhumerus -31.3274 -11.3507 84.3282
lradius 36.3029
lwrist 6.69984
lhand -9.05444 -13.7974
lfingers 7.12502
lthumb 16.894 15.4878
rfemur -5.87751 3.23816 21.2199
rtibia 7.85497
rfoot -23.3878 -15.1996
rtoes -14.9347
lfemur -20.0803 -0.13554 -16.94
ltibia 23.4942
lfoot -3.72942 -9.64282
ltoes 25.21
131
root 10.588 27.9592 -33.8018 9.24165 -0.903507 -1.07135
lowerback 2.63692 -0.335869 1.00039
upperback 1.97013 -0.429474 0.651595
thorax 0.537671 -0.208713 0.115509
lowerneck 0.0925287 -9.23246 -6.11841
upperneck 5.51816 -12.5799 6.47869
head 2.65615 -6.26264 2.80538
rclavicle 1.76421e-015 3.97569e-015
rhumerus -36.6681 2.06614 -82.4977
rradius 31.1252
rwrist 8.48734
rhand 2.73832 -19.8791
rfingers 7.12502
rthumb 28.2105 -47.7758
lclavicle 1.76421e-015 3.97569e-015
lhumerus -31.4703 -11.5819 84.4074
lradius 36.4264
lwrist 6.70278
lhand -9.65562 -13.8392
lfingers 7.12502
lthumb 16.3153 15.4945
rfemur -6.34944 2.69521 20.9239
rtibia 9.08957
rfoot -23.4901 -14.5525
rtoes -15.8553
lfemur -19.8764 -0.140515 -17.1696
ltibia 23.6133
lfoot -3.97223 -9.97097
ltoes 25.289
132
root 10.5958 27.9523 -33.8071 9.1781 -0.991239 -1.06078
lowerback 2.67999 -0.376583 0.845305
upperback 1.99963 -0.486379 0.627569
thorax 0.544511 -0.238497 0.17919
lowerneck -0.00803605 -9.04257 -5.88117
upperneck 5.52977 -12.3151 6.30994
head 2.62682 -6.12753 2.71578
rclavicle -9.41742e-015 1.83876e-015
rhumerus -36.5452 2.00903 -82.472
rradius 31.0787
rwrist 8.64545
rhand 2.5255 -19.6328
rfingers 7.12502
rthumb 28.007 -47.563
lclavicle -9.41742e-015 1.83876e-015
lhumerus -31.6147 -11.7636 84.4887
lradius 36.4923
lwrist 6.70209
lhand -10.3117 -13.8373
lfingers 7.12502
lthumb 15.6835 15.5471
rfemur -6.89628 2.09454 20.6098
rtibia 10.4685
rfoot -23.5572 -13.8612
rtoes -16.6303
lfemur -19.6816 -0.174756 -17.4257
ltibia 23.7286
lfoot -4.34221 -10.1534
ltoes 24.8026
